<svg width="512" height="512" viewBox="0 0 512 512" fill="none" xmlns="http://www.w3.org/2000/svg">
  <!-- Outer Ring -->
  <circle cx="256" cy="256" r="240" fill="#6E38B5" stroke="#F6B73C" stroke-width="8"/>
  
  <!-- Inner Purple Background -->
  <circle cx="256" cy="256" r="220" fill="#4E2391"/>
  
  <!-- Coin Edge Ridges -->
  <circle cx="256" cy="256" r="230" fill="none" stroke="#F6B73C" stroke-width="2" stroke-dasharray="8 4"/>
  
  <!-- Top Text "FUCK THE" -->
  <path d="M150 180 Q150 160 170 160 L342 160 Q362 160 362 180 L362 185 Q362 195 352 195 L172 195 Q162 195 162 185 L162 180 Z" fill="#F6B73C"/>
  <text x="256" y="185" text-anchor="middle" fill="#4E2391" font-family="Arial Black, sans-serif" font-size="28" font-weight="900">FUCK THE</text>
  
  <!-- Center Logo Elements -->
  <g transform="translate(256, 256)">
    <!-- Teal accent stripes -->
    <rect x="-80" y="-20" width="20" height="40" fill="#00B9A7" rx="10"/>
    <rect x="-60" y="-15" width="15" height="30" fill="#00B9A7" rx="7"/>
    <rect x="-45" y="-10" width="10" height="20" fill="#00B9A7" rx="5"/>
    
    <!-- Main FTF Text -->
    <text x="0" y="15" text-anchor="middle" fill="#F6B73C" font-family="Arial Black, sans-serif" font-size="72" font-weight="900">FTF</text>
  </g>
  
  <!-- Bottom Text "FARMERS" -->
  <path d="M150 332 Q150 312 170 312 L342 312 Q362 312 362 332 L362 337 Q362 347 352 347 L172 347 Q162 347 162 337 L162 332 Z" fill="#F6B73C"/>
  <text x="256" y="337" text-anchor="middle" fill="#4E2391" font-family="Arial Black, sans-serif" font-size="28" font-weight="900">FARMERS</text>
  
  <!-- 3D Shadow Effect -->
  <circle cx="260" cy="260" r="240" fill="none" stroke="rgba(0,0,0,0.3)" stroke-width="4"/>
  
  <!-- Highlight Effect -->
  <ellipse cx="210" cy="180" rx="40" ry="20" fill="rgba(255,255,255,0.2)" transform="rotate(-30 210 180)"/>
</svg>
